<?xml version="1.0" encoding="UTF-8" standalone="no"?>
<!-- Created with Inkscape (http://www.inkscape.org/) -->

<svg
   xmlns:dc="http://purl.org/dc/elements/1.1/"
   xmlns:cc="http://creativecommons.org/ns#"
   xmlns:rdf="http://www.w3.org/1999/02/22-rdf-syntax-ns#"
   xmlns:svg="http://www.w3.org/2000/svg"
   xmlns="http://www.w3.org/2000/svg"
   xmlns:sodipodi="http://sodipodi.sourceforge.net/DTD/sodipodi-0.dtd"
   xmlns:inkscape="http://www.inkscape.org/namespaces/inkscape"
   width="350.89999"
   height="60.400002"
   viewBox="0 0 92.842288 15.980833"
   version="1.1"
   id="svg3700"
   inkscape:version="0.92.0 r15299"
   sodipodi:docname="altran.svg">
  <defs
     id="defs3694" />
  <sodipodi:namedview
     id="base"
     pagecolor="#ffffff"
     bordercolor="#666666"
     borderopacity="1.0"
     inkscape:pageopacity="0.0"
     inkscape:pageshadow="2"
     inkscape:zoom="2.2920835"
     inkscape:cx="174.95"
     inkscape:cy="29.700002"
     inkscape:document-units="mm"
     inkscape:current-layer="layer1"
     showgrid="false"
     fit-margin-top="0"
     fit-margin-left="0"
     fit-margin-right="0"
     fit-margin-bottom="0"
     units="px"
     inkscape:window-width="1280"
     inkscape:window-height="744"
     inkscape:window-x="-4"
     inkscape:window-y="-4"
     inkscape:window-maximized="1" />
  <metadata
     id="metadata3697">
    <rdf:RDF>
      <cc:Work
         rdf:about="">
        <dc:format>image/svg+xml</dc:format>
        <dc:type
           rdf:resource="http://purl.org/dc/dcmitype/StillImage" />
        <dc:title></dc:title>
      </cc:Work>
    </rdf:RDF>
  </metadata>
  <g
     inkscape:label="Layer 1"
     inkscape:groupmode="layer"
     id="layer1"
     transform="translate(-8.1397179,-158.85348)">
    <g
       id="g3650"
       transform="matrix(0.26458333,0,0,0.26458333,7.7957593,158.56244)">
      <path
         style="fill:#007eaf"
         inkscape:connector-curvature="0"
         class="st1"
         d="m 34.3,1.6 c 0,0 0,0 0,0 -7.4,0 -16.2,1.4 -21.9,5.8 -4.4,3.5 4.6,7.8 12.7,4 2,-0.9 4.8,-1.7 7.6,-1.7 12.4,-0.1 16.5,5.2 16.9,13.9 -5.3,0 -11.1,0 -18.4,0.3 -19.7,0.4 -29.4,6.4 -29.4,18.5 0,10.6 10.3,18.4 24.6,18.4 15.9,0 31.6,-3 31.6,-3 4.5,-4.5 3.8,-36.4 3.8,-36.4 C 61.8,7.3 49.7,1.6 34.3,1.6 Z m -5.2,50.6 c -10,0 -14.5,-5.5 -14.5,-10.1 0,-6.7 6.7,-8.5 18.2,-9 7.1,-0.3 12.5,-0.3 16.7,-0.3 -0.4,11.7 3.4,19.4 -20.4,19.4 z"
         id="path3638" />
      <path
         style="fill:#007eaf"
         inkscape:connector-curvature="0"
         class="st1"
         d="M 81.4,36.9 V 2.2 H 68.7 v 43.9 c 0,12.7 12.7,12.7 12.7,12.7 h 31.1 V 49.6 H 94 C 81.4,49.5 81.4,49.5 81.4,36.9 Z"
         id="path3640" />
      <path
         style="fill:#007eaf"
         inkscape:connector-curvature="0"
         class="st1"
         d="m 100.1,11.5 h 12.3 c 9.3,0 9.3,0 9.3,9 v 38.2 h 12.7 V 20.5 c 0,-9 0,-9 9.1,-9 h 12.4 V 2.2 h -55.8 z"
         id="path3642" />
      <path
         style="fill:#007eaf"
         inkscape:connector-curvature="0"
         class="st1"
         d="m 220.4,19.2 c 0,-11.2 -9.3,-17 -21.8,-17 0,0 0,0 0,0 h -34.7 v 56.5 h 12.7 V 36.4 H 192 c 11.5,0.1 15.6,2.6 15.6,13.4 v 9 h 12.9 V 48.4 c 0,-8.2 -1.7,-13.3 -8.6,-15.4 5.2,-3 8.5,-8 8.5,-13.8 z m -26.5,8.5 H 176.6 V 11.5 h 17.8 c 6.7,0 13.1,0.7 13.1,7.5 0,6.8 -6.2,8.7 -13.6,8.7 z"
         id="path3644" />
      <path
         style="fill:#007eaf"
         inkscape:connector-curvature="0"
         class="st1"
         d="m 323.6,1.6 c 0,0 -0.1,0 -0.1,0 -16.1,0 -28.2,8 -28.1,24.4 v 32.8 h 11.9 V 26 c 0,-9.2 5.6,-14.8 16.2,-14.8 10.7,0 16.3,5.7 16.3,14.8 v 32.8 h 11.9 V 26 c 0,-16.3 -12,-24.4 -28.1,-24.4 z"
         id="path3646" />
      <path
         style="fill:#007eaf"
         inkscape:connector-curvature="0"
         class="st1"
         d="m 259.6,1.6 c 0,0 0,0 0,0 -7.4,0 -16.2,1.4 -21.9,5.8 -4.5,3.5 4.6,7.8 12.6,4.1 2,-0.9 4.8,-1.7 7.6,-1.7 12.4,-0.1 16.5,5.2 16.9,13.9 -5.3,0 -11.1,0 -18.4,0.3 -19.7,0.5 -29.4,6.5 -29.4,18.6 0,10.6 10.3,18.4 24.6,18.4 15.9,0 31.6,-3 31.6,-3 4.5,-4.5 3.8,-36.4 3.8,-36.4 0.1,-14.3 -12,-20 -27.4,-20 z m -5.2,50.6 c -10,0 -14.5,-5.5 -14.5,-10.1 0,-6.7 6.7,-8.5 18.2,-9 7,-0.3 12.5,-0.3 16.7,-0.3 -0.5,11.7 3.4,19.4 -20.4,19.4 z"
         id="path3648" />
    </g>
  </g>
</svg>
